<?xml version="1.0" encoding="utf-8"?>
<!-- Generator: Adobe Illustrator 28.0.0, SVG Export Plug-In . SVG Version: 6.00 Build 0)  -->
<svg version="1.1" id="Layer_1" xmlns="http://www.w3.org/2000/svg" xmlns:xlink="http://www.w3.org/1999/xlink" x="0px" y="0px"
	 viewBox="0 0 612 792" style="enable-background:new 0 0 612 792;" xml:space="preserve">

<path d="M304.06,299.01c0.43-2.71,0.92-5.34,1.25-7.99c0.57-4.55,1.05-9.11,1.01-13.7c-0.04-4.65,0.04-9.3-0.5-13.94
	c-1.76-15.04-6.79-28.74-16.5-40.53c-6.54-7.95-14.49-14.17-23.54-19.01c-6.99-3.74-14.33-6.56-22.08-8.26
	c-0.55-0.12-1.11-0.18-1.66-0.29c-0.55-0.11-1.11-0.19-1.65-0.36c-3.04-0.96-4.88-3.95-4.33-7.1c0.53-3.05,3.26-5.48,6.47-5.18
	c1.74,0.16,3.48,0.52,5.19,0.94c14.13,3.46,27.15,9.3,38.73,18.17c12.14,9.3,21.13,21.02,26.69,35.31c0.24,0.62,0.29,1.38,1.04,1.86
	c0.36-0.79,0.71-1.55,1.06-2.31c3.74-8.14,8.54-15.56,14.8-22c8.64-8.9,19.02-14.89,30.89-18.36c5.21-1.53,10.52-2.6,15.94-3.04
	c3.23-0.26,6.47-0.47,9.7-0.65c0.91-0.05,1.83,0.01,2.74,0.13c3.51,0.49,5.45,3.69,5.42,6.32c-0.04,3.88-0.15,7.76-0.57,11.61
	c-0.64,5.82-1.74,11.56-3.5,17.16c-5.68,17.98-16.84,31.5-33.19,40.81c-7.83,4.46-16.19,7.55-24.93,9.65
	c-4.11,0.99-8.26,1.78-12.47,2.21c-0.2,0.02-0.39,0.13-0.57,0.2c-0.26,0.93-1.4,11.44-1.38,12.82c0.61,0.28,1.05-0.2,1.49-0.45
	c5.32-2.91,10.76-5.55,16.35-7.91c8.58-3.63,17.4-6.49,26.54-8.33c4.63-0.93,9.29-1.69,14.01-1.9c3.03-0.13,6.06-0.4,9.08-0.33
	c21.95,0.47,41.34,7.75,58.04,22.04c10.58,9.05,18.85,19.95,25.44,32.16c6.47,11.98,10.97,24.7,13.99,37.95
	c1.51,6.6,2.59,13.28,3.33,20c0.86,7.86,1.18,15.75,0.98,23.65c-1.1,43.65-14.75,82.93-41.24,117.66
	c-14.66,19.21-32.51,34.95-53,47.72c-4.48,2.8-9.04,5.48-13.75,7.87c-4.1,2.08-8.34,3.78-12.88,4.6c-1.73,0.31-3.48,0.53-5.24,0.63
	c-5.22,0.3-10.41-0.11-15.6-0.77c-10.45-1.33-20.63-3.71-30.53-7.31c-2.44-0.89-4.82-1.97-7.23-2.97c-0.52-0.21-1.02-0.46-1.55-0.69
	c-3.78,1.78-7.63,3.34-11.57,4.66c-7.22,2.42-14.59,4.23-22.1,5.49c-5.02,0.84-10.06,1.37-15.14,1.43c-9.75,0.11-19-1.99-27.7-6.46
	c-5.47-2.81-10.6-6.15-15.6-9.71c-6.95-4.96-13.81-10.02-20.27-15.61c-23.77-20.57-41.66-45.39-53.65-74.45
	c-5.31-12.87-9.19-26.17-11.73-39.86c-1.3-7-2.19-14.06-2.72-21.17c-0.63-8.31-0.74-16.63-0.28-24.94
	c1.13-20.23,5.27-39.77,13.49-58.36c5.08-11.48,11.57-22.09,19.9-31.52c10.45-11.83,22.88-20.84,37.72-26.4
	c6.09-2.28,12.36-3.88,18.79-4.75c6.43-0.86,12.9-1.13,19.4-0.71c16.54,1.08,32.07,5.77,47.04,12.63
	c6.8,3.11,13.35,6.68,19.74,10.56c0.54,0.33,1.08,0.66,1.63,0.97C303.45,298.98,303.61,298.96,304.06,299.01z M300.88,312.42
	c-2.41-1.49-4.6-2.89-6.83-4.23c-10.41-6.26-21.28-11.55-32.85-15.35c-7.99-2.62-16.16-4.45-24.53-5.17
	c-5.91-0.51-11.82-0.48-17.73,0.24c-4.63,0.56-9.17,1.47-13.62,2.83c-13.17,4.03-24.34,11.28-33.87,21.15
	c-8.01,8.3-14.26,17.8-19.2,28.19c-8.78,18.47-13,38.06-13.97,58.39c-0.34,7.18-0.24,14.37,0.29,21.56
	c0.52,7.11,1.42,14.16,2.75,21.16c3.08,16.21,8.13,31.78,15.37,46.62c18.69,38.3,47.49,66.57,85.27,85.93
	c0.99,0.51,2.08,0.87,3.15,1.18c2.93,0.86,5.96,1.04,8.99,1.15c4.38,0.16,8.73-0.3,13.07-0.85c4.33-0.55,8.62-1.36,12.86-2.41
	c8.01-1.98,15.88-4.34,23.13-8.44c2.2-1.24,4.43-1.26,6.62,0.05c2.85,1.7,5.89,3.02,9,4.16c9.35,3.44,18.98,5.73,28.89,6.85
	c5.12,0.58,10.25,0.94,15.4,0.35c2.95-0.34,5.84-0.91,8.48-2.37c1.17-0.65,2.37-1.24,3.55-1.87c21.14-11.39,39.77-25.93,55.29-44.3
	c27.42-32.46,41.91-70.06,44.18-112.41c0.44-8.24,0.19-16.49-0.63-24.72c-0.72-7.23-1.83-14.39-3.48-21.47
	c-2.84-12.21-7.08-23.89-13.15-34.89c-6.05-10.97-13.64-20.71-23.34-28.71c-12.32-10.15-26.46-15.93-42.33-17.4
	c-3.99-0.37-8.01-0.41-12.04-0.2c-6.43,0.33-12.75,1.28-18.98,2.82c-16.17,3.97-30.97,11.09-45.04,19.84
	c-0.71,0.44-1.1,0.99-1.3,1.81c-0.57,2.33-1.21,4.63-1.81,6.95c-0.1,0.38-0.14,0.78-0.23,1.26c0.47,0.03,0.81,0.1,1.15,0.08
	c1.4-0.11,2.81-0.25,4.21-0.36c4.64-0.37,9.22-1.15,13.79-1.99c0.55-0.1,1.12-0.19,1.67-0.17c2.71,0.11,4.68,1.39,5.79,3.89
	c1.02,2.31,0.49,5.04-1.26,6.87c-1.01,1.05-2.25,1.63-3.69,1.9c-3.74,0.71-7.49,1.29-11.26,1.78c-4.41,0.57-8.84,0.89-13.27,1.07
	c-8.26,0.32-16.48-0.28-24.64-1.65c-2.08-0.35-4.15-0.77-6.2-1.27c-3.64-0.88-5.65-4.13-4.88-7.68c0.73-3.36,4.32-5.59,7.79-4.73
	c2.18,0.54,4.4,1,6.62,1.32c3.14,0.44,6.29,0.72,9.45,1.05c0.4,0.04,0.81-0.05,1.28-0.08C299.52,317.59,300.4,315.15,300.88,312.42z
	 M319.72,267.63c0.45,0,0.73,0.04,0.99-0.01c2.15-0.38,4.3-0.71,6.43-1.17c8.3-1.78,16.25-4.57,23.62-8.84
	c19.31-11.2,28.84-28.41,30.82-50.24c0.05-0.54-0.01-1.09-0.03-1.75c-0.4,0-0.66-0.03-0.92,0c-2.72,0.36-5.45,0.67-8.15,1.12
	c-5.86,0.98-11.48,2.77-16.84,5.34c-11.08,5.32-19.51,13.47-25.68,24.03c-4.59,7.86-7.55,16.34-9.33,25.24
	C320.23,263.35,319.72,265.34,319.72,267.63z" stroke="#738a69" fill="none" stroke-width="2"/>
<path  d="M300.88,312.42c-0.48,2.72-1.36,5.16-2.11,7.73c-0.47,0.03-0.88,0.12-1.28,0.08c-3.15-0.33-6.31-0.61-9.45-1.05
	c-2.23-0.31-4.44-0.78-6.62-1.32c-3.46-0.86-7.06,1.37-7.79,4.73c-0.77,3.55,1.25,6.8,4.88,7.68c2.05,0.5,4.12,0.92,6.2,1.27
	c8.16,1.37,16.37,1.97,24.64,1.65c4.43-0.17,8.86-0.49,13.27-1.07c3.77-0.49,7.52-1.07,11.26-1.78c1.43-0.27,2.67-0.85,3.69-1.9
	c1.75-1.82,2.28-4.56,1.26-6.87c-1.1-2.5-3.07-3.78-5.79-3.89c-0.56-0.02-1.12,0.07-1.67,0.17c-4.57,0.85-9.15,1.63-13.79,1.99
	c-1.4,0.11-2.81,0.26-4.21,0.36c-0.34,0.03-0.69-0.04-1.15-0.08c0.09-0.48,0.13-0.88,0.23-1.26c0.6-2.32,1.25-4.62,1.81-6.95
	c0.2-0.81,0.59-1.37,1.3-1.81c14.07-8.75,28.87-15.87,45.04-19.84c6.23-1.53,12.56-2.48,18.98-2.82c4.03-0.21,8.05-0.17,12.04,0.2
	c15.87,1.46,30.01,7.24,42.33,17.4c9.71,8,17.29,17.74,23.34,28.71c6.07,10.99,10.3,22.68,13.15,34.89
	c1.65,7.08,2.76,14.24,3.48,21.47c0.81,8.23,1.07,16.48,0.63,24.72c-2.27,42.35-16.76,79.95-44.18,112.41
	c-15.52,18.37-34.15,32.91-55.29,44.3c-1.18,0.63-2.38,1.22-3.55,1.87c-2.64,1.46-5.53,2.03-8.48,2.37
	c-5.15,0.59-10.27,0.23-15.4-0.35c-9.91-1.13-19.54-3.41-28.89-6.85c-3.11-1.14-6.14-2.46-9-4.16c-2.19-1.31-4.43-1.29-6.62-0.05
	c-7.24,4.1-15.12,6.46-23.13,8.44c-4.24,1.05-8.53,1.86-12.86,2.41c-4.33,0.55-8.69,1.01-13.07,0.85c-3.03-0.11-6.06-0.28-8.99-1.15
	c-1.07-0.32-2.16-0.68-3.15-1.18c-37.78-19.36-66.59-47.64-85.27-85.93c-7.24-14.83-12.29-30.41-15.37-46.62
	c-1.33-6.99-2.23-14.05-2.75-21.16c-0.53-7.19-0.63-14.38-0.29-21.56c0.97-20.34,5.19-39.92,13.97-58.39
	c4.94-10.39,11.19-19.89,19.2-28.19c9.52-9.87,20.69-17.12,33.87-21.15c4.45-1.36,9-2.26,13.62-2.83
	c5.91-0.72,11.82-0.75,17.73-0.24c8.38,0.72,16.55,2.55,24.53,5.17c11.56,3.8,22.44,9.08,32.85,15.35
	C296.27,309.53,298.47,310.93,300.88,312.42z" stroke="#738a69" fill="none" stroke-width="2"/>
<path  d="M319.72,267.63c0.01-2.29,0.51-4.28,0.91-6.28c1.78-8.9,4.74-17.38,9.33-25.24
	c6.17-10.56,14.6-18.71,25.68-24.03c5.36-2.57,10.98-4.36,16.84-5.34c2.7-0.45,5.43-0.76,8.15-1.12c0.26-0.03,0.53,0,0.92,0
	c0.01,0.66,0.08,1.21,0.03,1.75c-1.99,21.83-11.52,39.04-30.82,50.24c-7.37,4.27-15.31,7.06-23.62,8.84
	c-2.13,0.46-4.29,0.79-6.43,1.17C320.44,267.67,320.17,267.63,319.72,267.63z" stroke="#738a69" fill="none" stroke-width="2"/>
</svg>
